General
Complete name           : Taken 2[2012][Extended-Unrated]BRrip[Ac3-5.1]-=[CaLvIn]=-
Format                           : AVI
Format/Info                      : Audio Video Interleave
File size                        : 699 MiB
Duration                         : 1h 38mn
Overall bit rate                 : 995 Kbps
Writing application              : VirtualDubMod 1.5.10.3 | www.virtualdub-fr.org || (build 2550/release)
Writing library                  : VirtualDubMod build 2550/release

Video
ID                               : 0
Format                           : MPEG-4 Visual
Format profile                   : Advanced Simple@L5
Format settings, BVOP            : 2
Format settings, QPel            : No
Format settings, GMC             : No warppoints
Format settings, Matrix          : Default (H.263)
Codec ID                         : XVID
Codec ID/Hint                    : XviD
Duration                         : 1h 38mn
Bit rate                         : 729 Kbps
Width                            : 720 pixels
Height                           : 304 pixels
Display aspect ratio             : 16:9
Frame rate                       : 23.976 fps
Color space                      : YUV
Chroma subsampling               : 4:2:0
Bit depth                        : 8 bits
Scan type                        : Progressive
Compression mode                 : Lossy
Bits/(Pixel*Frame)               : 0.139
Stream size                      : 513 MiB (73%)
Writing library                  : XviD 1.2.1 (UTC 2008-12-04)

Audio
ID                               : 1
Format                           : AC-3
Format/Info                      : Audio Coding 3
Mode extension                   : CM (complete main)
Codec ID                         : 2000
Duration                         : 1h 38mn
Bit rate mode                    : Constant
Bit rate                         : 256 Kbps
Channel(s)                       : 6 channels
Channel positions                : Front: L C R, Side: L R, LFE
Sampling rate                    : 48.0 KHz
Bit depth                        : 16 bits
Compression mode                 : Lossy
Stream size                      : 180 MiB (26%)
Alignment                        : Split accross interleaves
Interleave, duration             : 42 ms (1.00 video frame)
Interleave, preload duration     : 500 ms


Screens
 
http://img89.imageshack.us/img89/4059/31482175.png 
http://img834.imageshack.us/img834/1030/58741202.png 
http://img145.imageshack.us/img145/6270/85943119.png 
http://img37.imageshack.us/img37/544/74114097.png 
http://img577.imageshack.us/img577/7050/32719373.png 
http://img716.imageshack.us/img716/395/57993158.png 
http://img853.imageshack.us/img853/5741/75229232.png 
http://img571.imageshack.us/img571/5930/16420937.png 
http://img818.imageshack.us/img818/3100/76518633.png 
http://img826.imageshack.us/img826/2293/11968562.png